<svg width="22" height="21" viewBox="0 0 22 21" fill="none" xmlns="http://www.w3.org/2000/svg">
<path d="M15.0236 3.46406V2.16406C15.0236 1.8224 14.7403 1.53906 14.3986 1.53906C14.0569 1.53906 13.7736 1.8224 13.7736 2.16406V3.41406H8.35697V2.16406C8.35697 1.8224 8.07363 1.53906 7.73197 1.53906C7.3903 1.53906 7.10697 1.8224 7.10697 2.16406V3.46406C4.85697 3.67239 3.7653 5.01406 3.59863 7.00573C3.58197 7.24739 3.78197 7.44739 4.0153 7.44739H18.1153C18.3569 7.44739 18.5569 7.23906 18.5319 7.00573C18.3653 5.01406 17.2736 3.67239 15.0236 3.46406Z" fill="#797979"/>
<path opacity="0.4" d="M17.7331 8.70312C18.1915 8.70312 18.5665 9.07812 18.5665 9.53646V14.6698C18.5665 17.1698 17.3165 18.8365 14.3998 18.8365H7.73308C4.81641 18.8365 3.56641 17.1698 3.56641 14.6698V9.53646C3.56641 9.07812 3.94141 8.70312 4.39974 8.70312H17.7331Z" fill="#797979"/>
<path d="M8.14974 13.0017C7.93308 13.0017 7.71641 12.91 7.55808 12.76C7.40808 12.6017 7.31641 12.385 7.31641 12.1684C7.31641 11.9517 7.40808 11.735 7.55808 11.5767C7.79141 11.3434 8.15808 11.2683 8.46641 11.4017C8.57474 11.4433 8.66641 11.5017 8.74141 11.5767C8.89141 11.735 8.98308 11.9517 8.98308 12.1684C8.98308 12.385 8.89141 12.6017 8.74141 12.76C8.58308 12.91 8.36641 13.0017 8.14974 13.0017Z" fill="#797979"/>
<path d="M11.0677 13.0017C10.8511 13.0017 10.6344 12.91 10.476 12.76C10.326 12.6017 10.2344 12.385 10.2344 12.1684C10.2344 11.9517 10.326 11.735 10.476 11.5767C10.5511 11.5017 10.6427 11.4433 10.7511 11.4017C11.0594 11.2683 11.4261 11.3434 11.6594 11.5767C11.8094 11.735 11.9011 11.9517 11.9011 12.1684C11.9011 12.385 11.8094 12.6017 11.6594 12.76C11.6177 12.7933 11.5761 12.8267 11.5344 12.86C11.4844 12.8933 11.4344 12.9184 11.3844 12.935C11.3344 12.96 11.2844 12.9767 11.2344 12.985C11.1761 12.9934 11.1261 13.0017 11.0677 13.0017Z" fill="#797979"/>
<path d="M13.9856 13.0026C13.769 13.0026 13.5523 12.9109 13.394 12.7609C13.244 12.6026 13.1523 12.3859 13.1523 12.1693C13.1523 11.9526 13.244 11.736 13.394 11.5776C13.4773 11.5026 13.5606 11.4443 13.669 11.4026C13.819 11.3359 13.9856 11.3193 14.1523 11.3526C14.2023 11.3609 14.2523 11.3776 14.3023 11.4026C14.3523 11.4193 14.4023 11.4443 14.4523 11.4776C14.494 11.511 14.5356 11.5443 14.5773 11.5776C14.7273 11.736 14.819 11.9526 14.819 12.1693C14.819 12.3859 14.7273 12.6026 14.5773 12.7609C14.5356 12.7943 14.494 12.8276 14.4523 12.8609C14.4023 12.8943 14.3523 12.9193 14.3023 12.936C14.2523 12.961 14.2023 12.9776 14.1523 12.986C14.094 12.9943 14.0356 13.0026 13.9856 13.0026Z" fill="#797979"/>
<path d="M8.14974 15.9167C8.04141 15.9167 7.93308 15.8917 7.83308 15.85C7.72474 15.8084 7.64141 15.75 7.55808 15.675C7.40808 15.5167 7.31641 15.3 7.31641 15.0833C7.31641 14.8667 7.40808 14.65 7.55808 14.4917C7.64141 14.4167 7.72474 14.3583 7.83308 14.3167C7.98308 14.25 8.14974 14.2333 8.31641 14.2667C8.36641 14.275 8.41641 14.2917 8.46641 14.3167C8.51641 14.3333 8.56641 14.3584 8.61641 14.3917C8.65808 14.425 8.69974 14.4584 8.74141 14.4917C8.89141 14.65 8.98308 14.8667 8.98308 15.0833C8.98308 15.3 8.89141 15.5167 8.74141 15.675C8.69974 15.7083 8.65808 15.75 8.61641 15.775C8.56641 15.8083 8.51641 15.8334 8.46641 15.85C8.41641 15.875 8.36641 15.8917 8.31641 15.9C8.25808 15.9084 8.20808 15.9167 8.14974 15.9167Z" fill="#797979"/>
<path d="M11.0677 15.9141C10.8511 15.9141 10.6344 15.8224 10.476 15.6724C10.326 15.514 10.2344 15.2974 10.2344 15.0807C10.2344 14.8641 10.326 14.6474 10.476 14.4891C10.7844 14.1807 11.3511 14.1807 11.6594 14.4891C11.8094 14.6474 11.9011 14.8641 11.9011 15.0807C11.9011 15.2974 11.8094 15.514 11.6594 15.6724C11.5011 15.8224 11.2844 15.9141 11.0677 15.9141Z" fill="#797979"/>
<path d="M13.9856 15.9141C13.769 15.9141 13.5523 15.8224 13.394 15.6724C13.244 15.514 13.1523 15.2974 13.1523 15.0807C13.1523 14.8641 13.244 14.6474 13.394 14.4891C13.7023 14.1807 14.269 14.1807 14.5773 14.4891C14.7273 14.6474 14.819 14.8641 14.819 15.0807C14.819 15.2974 14.7273 15.514 14.5773 15.6724C14.419 15.8224 14.2023 15.9141 13.9856 15.9141Z" fill="#797979"/>
</svg>
